<svg xmlns="http://www.w3.org/2000/svg" width="288" height="23" fill="none" xmlns:v="https://vecta.io/nano"><g clip-path="url(#E)"><path d="M36.728.544H.404v21.912h36.324V.544z" fill="url(#A)"/><path d="M36.324.932v21.135H.809V.932h35.515zm.809-.777H0v22.689h37.133V.155z" fill="#f2a84d"/><g fill-rule="evenodd"><g fill="#107db0"><path d="M28.112 9.053a8.05 8.05 0 0 0-1.982.311l-.162 1.204a6.23 6.23 0 0 1 1.699-.35c.647 0 1.052.117.89.661-1.942 0-3.276.389-3.519 1.593-.404 2.059 1.982 2.02 2.912 1.127l-.121.505h1.739l.768-3.302c.324-1.399-1.011-1.748-2.225-1.748zm.121 3.38a.84.84 0 0 1-.32.485.9.9 0 0 1-.57.175c-.404 0-.728-.311-.485-.699.133-.137.297-.243.479-.31a1.34 1.34 0 0 1 .572-.078h.404a1.56 1.56 0 0 1-.081.427zm3.601-4.662l-1.416 6.333h1.739l1.456-6.333h-1.78zm-8.09-.001h-3.236l-1.416 6.333h1.861l.485-2.098h1.335a2.72 2.72 0 0 0 1.728-.56 2.53 2.53 0 0 0 .942-1.499 1.59 1.59 0 0 0 .068-.788c-.044-.264-.155-.514-.322-.728s-.386-.386-.638-.501a1.78 1.78 0 0 0-.807-.158zm-.04 2.176a1.16 1.16 0 0 1-.404.595 1.24 1.24 0 0 1-.688.26h-.849l.404-1.709h.93c.404-.039.728.35.607.855z"/></g><g fill="#1b557d"><path d="M11.245 9.053c-.659.02-1.312.125-1.942.311l-.162 1.204a5.86 5.86 0 0 1 1.658-.35c.647 0 1.011.117.93.661-1.942 0-3.236.389-3.479 1.593-.364 2.059 1.942 2.02 2.872 1.127l-.121.505h1.739l.728-3.302c.283-1.399-1.052-1.748-2.225-1.748zm.121 3.38a.89.89 0 0 1-.345.487.96.96 0 0 1-.586.174.49.49 0 0 1-.261-.042.47.47 0 0 1-.196-.17c-.047-.073-.071-.159-.069-.245a.44.44 0 0 1 .08-.242 1.26 1.26 0 0 1 .46-.305c.175-.067.364-.096.552-.084h.445a1.59 1.59 0 0 0-.081.427zm2.832-3.264h1.739l.283 2.914 1.699-2.914h1.78l-4.085 7.032h-1.941l1.254-2.059-.728-4.973zM6.917 7.771H3.681l-1.416 6.333h1.901l.445-2.098h1.375a2.72 2.72 0 0 0 1.728-.56 2.53 2.53 0 0 0 .942-1.499c.324-1.476-.769-2.176-1.739-2.176zm-.04 2.176a1.16 1.16 0 0 1-.404.595 1.24 1.24 0 0 1-.688.26h-.89l.404-1.709h.93c.445-.039.769.35.647.855z"/></g></g><path d="M34.018 8.586v-.738h-.283v-.117h.688v.117h-.283v.738h-.121zm.526 0v-.855h.162l.202.583c.007.041.021.08.04.117 0-.039.041-.078.041-.117l.202-.583h.162v.855h-.121v-.699l-.243.699h-.121l-.243-.738v.738h-.081z" fill="#1b557d"/><g fill-rule="evenodd"><path d="M43.565.155h33.654c.266 0 .529.05.774.148a2.03 2.03 0 0 1 .656.421 1.94 1.94 0 0 1 .438.63c.102.236.154.488.154.743V20.98c0 .255-.052.508-.154.743a1.94 1.94 0 0 1-.438.63 2.03 2.03 0 0 1-.656.421c-.245.098-.508.148-.774.148H43.565c-.536 0-1.051-.205-1.43-.569s-.592-.858-.592-1.374V2.098c0-.515.213-1.009.592-1.374s.894-.569 1.43-.569z" fill="#2557d6"/><g fill="#fff"><path d="M41.541 10.84h1.82l.404-.932h.93l.404.932h3.56v-.738l.324.738h1.861l.324-.738v.738h8.858V9.286h.162c.121 0 .162 0 .162.194v1.36h4.571v-.35a3.66 3.66 0 0 0 1.699.35h1.942l.404-.932h.93l.404.932h3.721v-.894l.566.894h2.993V4.896h-2.953v.699l-.404-.699h-3.034v.699l-.364-.699H66.74a3.63 3.63 0 0 0-1.78.35v-.35h-2.83v.35a1.79 1.79 0 0 0-1.214-.35H50.562l-.688 1.515-.728-1.515H45.91v.699l-.364-.699h-2.751l-1.294 2.797.04 3.147zm11.407-.855h-1.092V6.683l-1.537 3.302h-.93l-1.537-3.341v3.341h-2.144l-.405-.932h-2.225l-.404.932h-1.133l1.901-4.235h1.578l1.82 4.002V5.75h1.739l1.375 2.875 1.254-2.875h1.78l-.04 4.235zm-8.009-1.826l-.728-1.671-.728 1.671h1.456zm12.337 1.826h-3.519V5.75h3.519v.855h-2.467v.777h2.427v.855h-2.427v.855h2.467v.894zm4.975-3.108a1.23 1.23 0 0 1-.198.663c-.129.199-.312.36-.53.464a1.09 1.09 0 0 1 .526.35c.162.194.162.389.162.777v.816h-1.052v-.544c0-.272.041-.622-.162-.816a1.05 1.05 0 0 0-.364-.171 1.08 1.08 0 0 0-.404-.023h-1.173v1.554h-1.052V5.75h2.427a2.67 2.67 0 0 1 1.294.194.96.96 0 0 1 .414.388.9.9 0 0 1 .112.545zm-1.335.622a1.15 1.15 0 0 1-.526.078h-1.294v-.932h1.294a.91.91 0 0 1 .485.078.42.42 0 0 1 .156.168c.035.069.051.145.046.221a.27.27 0 0 1 .034.114c.003.04-.004.08-.02.117a.28.28 0 0 1-.176.158zm3.034 2.486h-1.092V5.75h1.092v4.235zm12.58 0h-1.497L73.01 6.799v3.186h-2.144l-.404-.932h-2.184l-.404.932H66.62c-.555.031-1.102-.135-1.537-.466a2.15 2.15 0 0 1-.459-.76 2.09 2.09 0 0 1-.108-.872 2.27 2.27 0 0 1 .566-1.671c.324-.35.89-.505 1.618-.505h1.011v.894H66.7a1.02 1.02 0 0 0-.432.028.99.99 0 0 0-.377.205 1.47 1.47 0 0 0-.324.971 1.45 1.45 0 0 0 .283 1.01 1.08 1.08 0 0 0 .728.233h.485l1.497-3.341h1.578l1.78 4.002V5.75h1.618l1.861 2.953V5.75h1.092v4.235h.04zm-6.472-1.826l-.728-1.671-.728 1.671h1.456zm9.142 8.586c-.243.35-.768.544-1.456.544h-2.063v-.894h2.022a.75.75 0 0 0 .445-.117c.04-.034.071-.076.092-.123a.34.34 0 0 0 .03-.149.29.29 0 0 0-.024-.151.31.31 0 0 0-.098-.121c-.081-.078-.202-.078-.364-.078-1.011-.039-2.225.039-2.225-1.321 0-.622.404-1.243 1.537-1.243H79.2v-.855h-1.942c-.473-.032-.944.092-1.335.35v-.35h-2.912a2.08 2.08 0 0 0-1.254.35v-.35H66.58v.35c-.432-.233-.92-.354-1.416-.35h-3.398v.35c-.324-.311-1.052-.35-1.497-.35h-3.802l-.89.894-.809-.894h-5.703v5.905h5.623l.89-.932.849.932h3.438v-1.399h.324a3.78 3.78 0 0 0 1.456-.194v1.593h2.831V16.59h.121c.162 0 .202 0 .202.155v1.36h8.656a2.37 2.37 0 0 0 1.456-.389v.389h2.751a3.73 3.73 0 0 0 1.537-.272v-1.088zm-17.15-2.292c0 1.165-.93 1.438-1.861 1.438h-1.335v1.438h-2.063l-1.294-1.399-1.375 1.399h-4.207v-4.274h4.247l1.294 1.399 1.335-1.399h3.398c.93 0 1.861.233 1.861 1.399zm-8.413 1.981h-2.589v-.855h2.306v-.855h-2.306v-.777h2.67l1.173 1.243-1.254 1.243zm4.207.466l-1.618-1.709 1.618-1.671v3.38zm2.386-1.865h-1.375v-1.088h1.375c.364 0 .647.155.647.505s-.243.583-.647.583zm7.2-1.981h3.519v.893h-2.467v.777h2.427v.855h-2.427v.855h2.467v.894H67.43v-4.274zm-1.375 2.292a1.09 1.09 0 0 1 .526.35c.162.194.162.389.162.777v.855H65.69v-.544c0-.272.04-.622-.162-.816a1.05 1.05 0 0 0-.364-.171 1.08 1.08 0 0 0-.404-.023h-1.133v1.554h-1.052v-4.274h2.427c.441-.024.882.042 1.294.194.17.093.309.229.402.394a.97.97 0 0 1 .124.538c.007.246-.063.488-.2.695a1.28 1.28 0 0 1-.569.471zm-.607-.544a1.15 1.15 0 0 1-.526.078h-1.294v-.971h1.294a.91.91 0 0 1 .485.078c.067.042.121.099.156.168s.051.145.046.221c0 .194 0 .35-.162.427zm9.587.272a1.16 1.16 0 0 1 .26.414 1.12 1.12 0 0 1 .063.48c0 .894-.607 1.321-1.658 1.321h-2.103v-.894h2.063a.75.75 0 0 0 .445-.117c.04-.034.071-.076.092-.123a.34.34 0 0 0 .03-.149.29.29 0 0 0-.024-.151.31.31 0 0 0-.098-.121c-.081-.078-.202-.078-.364-.078-.971-.039-2.225.039-2.225-1.321 0-.622.405-1.243 1.497-1.243h2.103v.894h-1.942c-.202 0-.323 0-.404.078a.32.32 0 0 0-.13.132.3.3 0 0 0-.032.179c-.006.071.016.142.061.199a.31.31 0 0 0 .182.112 1.31 1.31 0 0 0 .404.039h.566c.437-.041.872.085 1.213.35zm4.166-1.127h-1.942a.77.77 0 0 0-.445.078.32.32 0 0 0-.13.132.3.3 0 0 0-.032.179c-.005.071.016.142.061.199a.31.31 0 0 0 .182.112 1.31 1.31 0 0 0 .404.039h.566a1.72 1.72 0 0 1 1.214.35c.04.039.081.078.081.117v-1.204h.04z"/></g><path d="M85.146 0h34.099c.536 0 1.051.205 1.43.569s.592.858.592 1.374v19.115c0 .515-.213 1.009-.592 1.374s-.894.569-1.43.569H85.146c-.536 0-1.051-.205-1.43-.569s-.592-.858-.592-1.374V1.943c0-.515.213-1.009.592-1.374S84.61 0 85.146 0z" fill="#0e4595"/><g fill="#fff"><path d="M97.24 16.356l1.699-9.557h2.71l-1.699 9.557h-2.71zm12.54-9.362a7.22 7.22 0 0 0-2.427-.389c-2.67 0-4.571 1.282-4.611 3.147 0 1.36 1.334 2.137 2.386 2.603s1.416.777 1.416 1.204c0 .661-.85.932-1.618.932a5.95 5.95 0 0 1-2.548-.505l-.365-.155-.364 2.137c.97.348 1.999.519 3.034.505 2.872 0 4.692-1.282 4.733-3.263 0-1.088-.728-1.904-2.265-2.603-.931-.427-1.538-.738-1.538-1.204 0-.389.486-.816 1.538-.816a5.35 5.35 0 0 1 2.022.35l.243.117.364-2.059zm6.997-.234h-2.103c-.647 0-1.133.155-1.416.777l-4.045 8.78h2.872l.567-1.437h3.478l.324 1.438h2.508l-2.185-9.557zm-3.316 6.177l1.092-2.681a7.14 7.14 0 0 0 .364-.932l.202.816.647 2.759-2.305.039zM94.935 6.76l-2.67 6.527-.283-1.321c-.485-1.515-2.022-3.186-3.762-4.002l2.427 8.353h2.872l4.288-9.557h-2.872z"/></g><path d="M89.798 6.76h-4.369l-.04.194c3.398.777 5.663 2.72 6.593 5.012l-.971-4.39c-.121-.622-.607-.777-1.213-.816z" fill="#f2ae14"/><path d="M126.971.039h33.977c.537 0 1.051.205 1.43.569s.593.858.593 1.374v19.037c0 .515-.213 1.009-.593 1.374s-.893.569-1.43.569h-33.977c-.537 0-1.051-.205-1.43-.569s-.593-.858-.593-1.374V1.982c.009-.513.224-1.002.602-1.365s.887-.57 1.421-.578z" fill="#f4f4f4"/><g fill="#233d2e"><path d="M156.321 20.591a.22.22 0 0 0-.09.021.21.21 0 0 0-.072.056c-.04.039-.04.078-.081.155.01.058.039.113.081.155s.081.039.162.078c.061-.01.117-.037.162-.078a.21.21 0 0 0 .058-.069c.014-.027.022-.056.023-.087-.01-.058-.039-.113-.081-.155-.02-.024-.044-.043-.072-.056a.22.22 0 0 0-.09-.021zm0 .388c-.032-.005-.061-.019-.082-.041s-.036-.051-.038-.081.005-.061.022-.087.044-.045.074-.054.063-.009.093.001.055.03.072.056.024.057.02.087-.017.059-.04.081c-.034.027-.077.041-.121.039zm.04-.272h-.081v.194h.041v-.078l.04.078h.041l-.081-.078h.04v-.039c-.005-.02-.008-.024-.011-.027-.018-.01-.024-.011-.029-.011.081-.039.04-.039.04-.039zm0 .039l.041.039h-.081v-.039h.04zm-23.258.121h-.429v-1.981h.445v.233s.364-.311.607-.311a.91.91 0 0 1 .386.098.89.89 0 0 1 .302.252c.074-.109.177-.198.297-.26a.82.82 0 0 1 .39-.09.79.79 0 0 1 .53.16.73.73 0 0 1 .279.461v1.399h-.445v-1.243c0-.054-.011-.108-.034-.158a.39.39 0 0 0-.098-.131c-.042-.037-.092-.064-.145-.081a.43.43 0 0 0-.168-.018.49.49 0 0 0-.343.093.46.46 0 0 0-.183.295v1.243h-.445v-1.243a.42.42 0 0 0-.143-.277.46.46 0 0 0-.301-.111c-.526 0-.526.389-.526.389l.04 1.282h-.016zm13.51-2.02c-.243 0-.607.311-.607.311v-.233h-.445v1.981h.462v-1.243s0-.389.525-.389c.081 0 .162.039.243.039l.162-.389a1.29 1.29 0 0 0-.324-.078h-.016zm6.229 0c-.242 0-.606.311-.606.311v-.233h-.445v1.981h.445v-1.243s0-.389.525-.389c.081 0 .162.039.243.039l.162-.389a1 1 0 0 0-.324-.078zm-15.492 0c-.289.005-.565.121-.766.321a1.03 1.03 0 0 0-.306.747c.006.278.126.543.334.736a1.12 1.12 0 0 0 .779.294 1.24 1.24 0 0 0 .687-.272v.194h.445v-1.982h-.445v.233c-.04.039-.323-.272-.728-.272zm.081.389c.138-.008.274.024.392.092a.67.67 0 0 1 .271.288.63.63 0 0 1 .056.384.64.64 0 0 1-.178.348.69.69 0 0 1-.351.192c-.134.029-.274.018-.402-.03a.69.69 0 0 1-.316-.242c-.077-.109-.119-.238-.119-.371-.003-.17.062-.334.183-.457a.69.69 0 0 1 .464-.204zm12.661-.389c-.29.005-.566.121-.767.321s-.311.469-.305.747a1.03 1.03 0 0 0 .334.736 1.12 1.12 0 0 0 .778.294c.253-.019.494-.114.688-.272v.194h.461v-1.982h-.445v.233c-.04.039-.324-.272-.728-.272h-.016zm.081.389a.71.71 0 0 1 .392.092.67.67 0 0 1 .271.288.64.64 0 0 1 .056.384.65.65 0 0 1-.178.348.7.7 0 0 1-.351.192.72.72 0 0 1-.403-.03.68.68 0 0 1-.315-.242c-.078-.109-.119-.238-.12-.371-.003-.17.063-.334.184-.457a.69.69 0 0 1 .464-.204zm4.126-.39c-.29.005-.566.121-.767.321s-.311.469-.305.747a1.03 1.03 0 0 0 .334.736c.209.193.488.299.778.293.253-.019.494-.114.688-.272v.194h.445v-2.797h-.445v1.049c-.041.039-.324-.272-.728-.272zm.08.389a.71.71 0 0 1 .393.092.68.68 0 0 1 .271.288.64.64 0 0 1 .056.384.65.65 0 0 1-.178.348.7.7 0 0 1-.351.192.72.72 0 0 1-.403-.03.68.68 0 0 1-.315-.242.64.64 0 0 1-.12-.371.64.64 0 0 1 .184-.457c.121-.124.287-.197.463-.204zm-14.561 1.71a1.99 1.99 0 0 1-.89-.272l.202-.272a2.05 2.05 0 0 0 .688.194c.202 0 .485-.039.485-.233s-.526-.233-.526-.233-.768 0-.768-.622c0-.389.404-.622.89-.622.28.038.553.116.809.233l-.203.311c-.207-.081-.425-.133-.647-.155-.202 0-.404.078-.404.233 0 .427 1.294-.039 1.294.816 0 .544-.526.622-.93.622zm1.658-2.642v.583h-.404v.427h.404v1.01a.6.6 0 0 0 .046.268.63.63 0 0 0 .158.225c.069.063.152.111.243.14a.67.67 0 0 0 .281.028c.209-.026.413-.078.607-.155l-.162-.427a.7.7 0 0 1-.364.117c-.364 0-.324-.233-.324-.233v-1.01h.728v-.427h-.711v-.587h-.486v.039l-.016.004zm2.629.544a1.08 1.08 0 0 0-.413.079 1.05 1.05 0 0 0-.346.229 1 1 0 0 0-.226.342.96.96 0 0 0-.067.399.99.99 0 0 0 .064.417 1.03 1.03 0 0 0 .234.357 1.06 1.06 0 0 0 .363.237 1.1 1.1 0 0 0 .432.076 2.21 2.21 0 0 0 .809-.272l-.203-.35a1.28 1.28 0 0 1-.606.233c-.155.001-.304-.054-.417-.156a.57.57 0 0 1-.19-.388h1.497c.04 0 .161-1.204-.931-1.204zm-.04.389h.04a.51.51 0 0 1 .369.123.47.47 0 0 1 .115.156.45.45 0 0 1 .042.187h-1.092c.012-.126.072-.244.169-.33a.55.55 0 0 1 .357-.136zm4.571 1.126l.202.389a1.51 1.51 0 0 1-.688.194 1.15 1.15 0 0 1-.44-.061 1.12 1.12 0 0 1-.38-.223 1.08 1.08 0 0 1-.258-.348 1.02 1.02 0 0 1-.095-.417.95.95 0 0 1 .064-.412.98.98 0 0 1 .235-.35c.103-.099.228-.176.364-.226s.283-.07.429-.061c.273.012.538.093.769.233l-.243.389s-.121-.194-.526-.194c-.169.018-.326.095-.44.217a.65.65 0 0 0 0 .888c.114.122.271.199.44.217a1.56 1.56 0 0 0 .567-.233z"/></g><g fill="#f79f1a"><path d="M156.628 13.618v-.272h-.089l-.081.194-.08-.194h-.081v.272h.04v-.194l.081.194h.04l.081-.194v.194h.089zm-.445 0v-.233h.081v-.039h-.242v.039h.081v.233h.08z"/><path d="M156.669 9.615c0 1.491-.46 2.948-1.323 4.187s-2.087 2.205-3.521 2.776a8.15 8.15 0 0 1-4.534.429c-1.522-.291-2.921-1.009-4.018-2.063s-1.845-2.397-2.148-3.859a7.26 7.26 0 0 1 .447-4.355c.594-1.377 1.6-2.554 2.89-3.383a8.08 8.08 0 0 1 4.36-1.27c2.08.002 4.075.797 5.546 2.21s2.299 3.329 2.301 5.327z"/></g><path d="M147.001 9.615c0 1.49-.46 2.947-1.322 4.187s-2.087 2.205-3.52 2.776a8.15 8.15 0 0 1-4.533.43c-1.522-.29-2.92-1.007-4.018-2.061s-1.846-2.396-2.149-3.857-.15-2.977.443-4.354a7.61 7.61 0 0 1 2.887-3.384c1.289-.829 2.805-1.272 4.357-1.274 2.081.002 4.075.797 5.547 2.21s2.298 3.329 2.3 5.327h.008z" fill="#ea001b"/><path d="M144 3.672c-.933.71-1.687 1.614-2.205 2.643a7.34 7.34 0 0 0-.787 3.301 7.34 7.34 0 0 0 .787 3.301c.518 1.029 1.272 1.933 2.205 2.643.933-.71 1.687-1.614 2.205-2.643a7.34 7.34 0 0 0 .788-3.301 7.34 7.34 0 0 0-.788-3.301c-.518-1.029-1.272-1.933-2.205-2.643z" fill="#ff5f01"/><path d="M169.928.116c-.34-.001-.677.063-.992.187a2.6 2.6 0 0 0-.841.539 2.49 2.49 0 0 0-.561.808c-.129.302-.196.626-.195.953v17.794a2.41 2.41 0 0 0 .195.953 2.49 2.49 0 0 0 .561.808 2.6 2.6 0 0 0 .841.539c.315.125.652.188.992.187h31.712a2.67 2.67 0 0 0 .992-.187 2.58 2.58 0 0 0 .841-.539 2.46 2.46 0 0 0 .561-.808 2.39 2.39 0 0 0 .195-.953V2.642a2.39 2.39 0 0 0-.195-.953c-.129-.302-.32-.577-.561-.808a2.58 2.58 0 0 0-.841-.539 2.67 2.67 0 0 0-.992-.187h-31.712V.116z" fill="#4d4d4d"/><path d="M186.998 7.46a2.67 2.67 0 0 1 1.849.679c.499.451.794 1.072.82 1.73-.037.656-.335 1.273-.831 1.724s-1.155.703-1.838.703-1.342-.252-1.838-.703-.794-1.068-.832-1.724c.007-.328.082-.651.22-.95s.338-.569.587-.794.542-.399.862-.513a2.65 2.65 0 0 1 1.001-.152zm-4.167.039a2.88 2.88 0 0 1 1.214.272V8.82a1.73 1.73 0 0 0-.554-.369 1.79 1.79 0 0 0-.66-.136c-.212.003-.422.045-.617.126s-.372.197-.521.343-.265.319-.344.508a1.49 1.49 0 0 0-.115.596c.002.204.047.406.131.593s.205.357.357.5a1.63 1.63 0 0 0 .529.331 1.68 1.68 0 0 0 .621.111 1.69 1.69 0 0 0 .64-.137c.202-.087.383-.212.533-.368v1.049a2.88 2.88 0 0 1-1.214.272c-.336.018-.673-.03-.99-.141s-.606-.282-.852-.504-.442-.489-.578-.785a2.32 2.32 0 0 1-.209-.94c-.04-1.321 1.133-2.37 2.629-2.37zm-4.611 0c.535-.018 1.057.163 1.456.505l-.525.622c-.09-.113-.207-.203-.341-.264a.96.96 0 0 0-.428-.086c-.404 0-.728.233-.728.505s.162.389.768.583c1.093.35 1.416.699 1.416 1.399 0 .855-.728 1.476-1.739 1.476a2.09 2.09 0 0 1-.984-.212 1.99 1.99 0 0 1-.755-.642l.647-.544a1.15 1.15 0 0 0 .441.432 1.21 1.21 0 0 0 .61.15c.094.009.188 0 .277-.027a.71.71 0 0 0 .245-.128c.071-.058.13-.129.173-.209s.067-.168.074-.258c.003-.095-.022-.19-.072-.272a.52.52 0 0 0-.211-.194c-.081-.039-.283-.117-.688-.272-.93-.311-1.213-.622-1.213-1.243.011-.187.062-.369.148-.537a1.43 1.43 0 0 1 .352-.441 1.49 1.49 0 0 1 .503-.276c.185-.059.38-.082.574-.068zm11.124.078h1.052l1.334 3.03 1.335-3.03h1.052l-2.144 4.623h-.526l-2.103-4.623zm-18.85.039h1.416c1.578 0 2.67.932 2.67 2.253-.003.337-.084.669-.238.972a2.27 2.27 0 0 1-.652.777c-.514.362-1.144.54-1.78.505h-1.416V7.616zm4.571 0h.971v4.507h-.971V7.616zm19.497 0h2.75v.777h-1.779v1.01h1.739v.777h-1.739v1.204h1.779v.777h-2.75V7.616zm3.398 0h1.456c1.132 0 1.78.505 1.78 1.321a1.2 1.2 0 0 1-.304.856c-.21.238-.506.39-.829.427l1.577 1.904h-1.213l-1.335-1.826h-.121v1.826H198V7.616h-.04zm.97.699v1.36h.283c.607 0 .931-.233.931-.699s-.324-.66-.931-.66h-.283zm-27.465.039v2.992h.243c.474.038.946-.086 1.335-.35.165-.141.298-.315.389-.509s.137-.405.137-.618-.046-.423-.137-.618-.224-.368-.389-.509c-.38-.281-.86-.406-1.335-.35h-.243v-.039z" fill="#fff"/><path d="M204.27 13.248c-1.214.816-10.477 6.799-26.454 9.674h23.865c.34.001.677-.063.992-.187a2.6 2.6 0 0 0 .841-.539 2.49 2.49 0 0 0 .561-.808 2.39 2.39 0 0 0 .195-.953v-7.188z" fill="#f47216"/><path d="M210.903.232h33.371c.525.001 1.029.202 1.4.559a1.87 1.87 0 0 1 .582 1.345v18.726a1.87 1.87 0 0 1-.582 1.345c-.371.357-.875.558-1.4.559h-33.371a2.03 2.03 0 0 1-1.4-.559c-.371-.357-.581-.84-.582-1.345V2.175a1.86 1.86 0 0 1 .143-.739c.098-.235.243-.449.427-.629a2 2 0 0 1 .646-.423 2.07 2.07 0 0 1 .766-.152z" fill="#0e4c96"/><path d="M239.663 16.822c-.005.957-.403 1.873-1.108 2.549a3.86 3.86 0 0 1-2.654 1.064h-20.386V6.177c.005-.957.403-1.873 1.107-2.549s1.658-1.059 2.654-1.064h20.387v14.258z" fill="#fff"/><path d="M233.029 11.811h1.739a.72.72 0 0 1 .348.204c.093.099.154.222.175.354a.66.66 0 0 1-.054.388c-.057.122-.149.225-.266.297-.364.194-.769.078-1.173.117h-.809v-1.36h.04zm2.063-1.515a.63.63 0 0 1-.02.307c-.031.1-.086.191-.161.266a.7.7 0 0 1-.269.168.72.72 0 0 1-.318.035h-1.335V9.829a11.26 11.26 0 0 1 1.618.039c.12.006.234.052.322.13a.49.49 0 0 1 .163.297zm3.236-6.527v2.564 10.412c-.027.648-.309 1.261-.79 1.716a2.71 2.71 0 0 1-1.799.732h-4.045v-5.206h4.409c.688-.039 1.416-.466 1.456-1.204s-.647-1.204-1.294-1.321c-.243 0-.243-.078 0-.117a1.24 1.24 0 0 0 .787-.506 1.15 1.15 0 0 0 .184-.892c-.162-.66-.93-.932-1.578-.932h-3.923V6.061c.071-.632.383-1.215.876-1.639s1.132-.656 1.793-.653h3.924z" fill="url(#B)"/><path d="M216.849 6.216a2.6 2.6 0 0 1 .813-1.694 2.8 2.8 0 0 1 1.776-.754h4.045v13.054c-.049.636-.34 1.234-.817 1.678s-1.108.704-1.772.731h-4.045v-5.439c1.306.33 2.667.409 4.005.233.809-.117 1.658-.505 1.941-1.282.203-.66.081-1.399.122-2.098V9.013h-2.306v3.225c-.048.31-.217.59-.472.785a1.32 1.32 0 0 1-.903.264 10.5 10.5 0 0 1-2.387-.544V6.216z" fill="url(#C)"/><path d="M224.333 9.673c-.122.039-.041-.389-.041-.544v-3.03c.071-.632.383-1.215.876-1.639a2.74 2.74 0 0 1 1.794-.653h3.923v13.054c-.049.636-.339 1.234-.817 1.678s-1.107.704-1.771.731h-4.045v-5.983c.93.738 2.184.855 3.317.855.859-.005 1.714-.11 2.548-.311v-1.088a4.56 4.56 0 0 1-3.115.466c-.363-.095-.683-.302-.91-.591a1.59 1.59 0 0 1-.344-1.002 1.65 1.65 0 0 1 .247-1.081c.205-.324.517-.572.886-.707.979-.228 2.01-.118 2.912.311.203.078.405.233.324-.078v-.855c-1.506-.395-3.092-.421-4.611-.078-.423.109-.821.294-1.173.544z" fill="url(#D)"/><path d="M250.786 22.805H288V.232h-37.214v22.573z" fill="#1b3771"/><g fill="#3a9bd9"><path d="M269.393 18.727c1.057-.919 1.902-2.04 2.48-3.291a9.47 9.47 0 0 0 .877-3.974 9.47 9.47 0 0 0-.877-3.974 9.82 9.82 0 0 0-2.48-3.291c-1.868-1.636-4.308-2.538-6.836-2.525-2.709 0-5.306 1.034-7.222 2.873s-2.991 4.335-2.991 6.937 1.076 5.097 2.991 6.937 4.513 2.873 7.222 2.873a10.76 10.76 0 0 0 6.836-2.564z"/><path d="M269.393 18.726c1.057-.919 1.902-2.04 2.48-3.291a9.47 9.47 0 0 0 .877-3.974 9.47 9.47 0 0 0-.877-3.974 9.82 9.82 0 0 0-2.48-3.291v14.53z"/></g><g fill="#cc2131"><path d="M276.229 1.632c-2.536.006-4.983.904-6.876 2.525-.368.321-.706.672-1.011 1.049h2.062a10.17 10.17 0 0 1 .769 1.049h-3.64l-.607 1.049h4.813l.445 1.049h-5.663c-.113.345-.207.695-.283 1.049h6.27a8.91 8.91 0 0 1 .202 2.059 8.82 8.82 0 0 1-.526 3.108h-5.663l.405 1.049h4.813c-.162.35-.364.699-.566 1.049h-3.64l.768 1.049h2.063a13.18 13.18 0 0 1-1.052 1.049c1.467 1.269 3.285 2.103 5.235 2.402a10.61 10.61 0 0 0 5.752-.72c1.805-.768 3.34-2.022 4.419-3.61s1.658-3.442 1.664-5.338a9.35 9.35 0 0 0-.727-3.774 9.69 9.69 0 0 0-2.191-3.209c-.946-.919-2.073-1.648-3.315-2.143s-2.575-.748-3.92-.743z"/><path d="M285.128 16.9a.3.3 0 0 1 .055-.173c.035-.051.086-.091.145-.114s.124-.03.187-.018a.33.33 0 0 1 .166.085c.045.044.076.099.088.159a.3.3 0 0 1-.018.18c-.025.057-.066.105-.119.14s-.116.052-.18.052c-.162.039-.324-.117-.324-.311zm.324.272c.064 0 .126-.025.171-.068s.071-.103.071-.165-.025-.121-.071-.165-.107-.068-.171-.068c-.032-.001-.064.004-.094.015a.23.23 0 0 0-.08.05c-.023.022-.041.048-.053.077s-.017.06-.016.091c.005.06.032.117.076.16a.27.27 0 0 0 .167.073zm-.041-.117h-.081v-.272h.122c.04 0 .04 0 .081.039l.04.039c0 .039 0 .039-.04.078l.04.117h-.081l-.04-.078h-.041v.078zm0-.155h.081v-.039l-.04-.039h-.041v.078z"/></g><path d="M260.939 14.181h-1.294l.768-3.807-1.739 3.807h-1.092l-.202-3.807-.85 3.807h-1.173l.971-4.973h2.022v3.069l1.416-3.069h2.144l-.971 4.973zm14.198-.078c-.304.075-.616.114-.93.117-.648 0-1.012-.311-1.012-.894a1.06 1.06 0 0 1 .041-.35l.081-.389.04-.311.567-3.108h1.253l-.161.932h.647l-.162.971h-.647l-.324 1.709v.155c0 .194.122.272.445.272a.84.84 0 0 0 .324-.039l-.162.932zm-5.056-2.681c0 .505.283.855.971 1.127.525.194.606.272.606.466s-.242.35-.728.35a4.25 4.25 0 0 1-1.173-.155l-.162.932h.041l.243.039c.105.03.214.043.323.039.283 0 .526.039.688.039 1.375 0 1.982-.427 1.982-1.36.013-.258-.069-.513-.231-.719a1.15 1.15 0 0 0-.659-.408c-.526-.194-.607-.233-.607-.427s.202-.311.607-.311c.311-.005.621.008.93.039l.162-.932a11.95 11.95 0 0 0-1.133-.078c-1.375-.039-1.86.583-1.86 1.36zm-5.016 2.758h-1.052v-.427a1.82 1.82 0 0 1-.617.365c-.23.08-.474.115-.717.102-.154.011-.308-.009-.453-.059a1.1 1.1 0 0 1-.388-.232c-.111-.103-.197-.227-.255-.364s-.084-.285-.077-.432c0-.971.809-1.554 2.224-1.554.176-.004.353.009.526.039.028-.075.041-.154.041-.233 0-.272-.203-.389-.809-.389-.355-.004-.708.035-1.052.117l-.162.039h-.121l.162-.894a6.19 6.19 0 0 1 1.537-.233c1.092 0 1.698.427 1.698 1.204a2.63 2.63 0 0 1-.121.816l-.243 1.438-.04.272-.04.194v.233h-.041zm-.89-1.826a.84.84 0 0 0-.283-.039c-.728 0-1.092.194-1.092.622 0 .055.011.108.034.158a.39.39 0 0 0 .098.131.41.41 0 0 0 .146.081c.053.017.11.023.167.018.566.039.93-.35.93-.971zm5.056 1.709a3.59 3.59 0 0 1-1.294.155c-1.416 0-2.144-.622-2.144-1.826 0-1.399.93-2.409 2.225-2.409 1.052 0 1.739.583 1.739 1.476-.003.342-.057.683-.162 1.01h-2.507v.117c0 .466.364.699 1.132.699a3.42 3.42 0 0 0 1.335-.272l-.324 1.049zm-.606-2.37V11.5c0-.311-.203-.505-.607-.505s-.688.233-.809.738h1.416v-.039zm14.157.622c-.162 1.36-1.173 1.943-2.467 1.943-1.457 0-2.023-.816-2.023-1.865a2.19 2.19 0 0 1 .146-.946c.118-.302.302-.576.54-.804a2.36 2.36 0 0 1 .837-.518c.314-.114.65-.161.985-.14 1.335 0 2.022.816 2.022 1.826.01.169-.003.339-.04.505zm-1.294-.466c0-.427-.162-.816-.688-.816-.647 0-1.052.738-1.052 1.399 0 .544.283.932.728.932a1.25 1.25 0 0 0 .654-.356c.174-.181.285-.41.317-.654.035-.166.049-.336.041-.505z" fill="#1b3771"/><path d="M282.903 13.559c.006-.081.042-.156.101-.214s.139-.092.223-.097a.33.33 0 0 1 .229.091c.06.058.095.137.095.22s-.035.162-.095.22a.33.33 0 0 1-.229.091c-.162.039-.324-.117-.324-.311zm.364.272a.27.27 0 0 0 .167-.073c.044-.043.071-.1.076-.16s-.025-.121-.071-.165-.107-.068-.172-.068-.126.024-.171.068-.071.103-.071.165c-.041.117.081.233.242.233zm-.04-.117h-.081v-.272h.121c.041 0 .041 0 .081.039.021.005.025.008.029.011.011.017.012.022.012.027 0 .039 0 .078-.041.078l.041.117h-.081l-.041-.078h-.04v.078zm0-.155h.081v-.039h-.081v.039zm-21.964.35h-1.294l.768-3.807-1.739 3.807h-1.173l-.203-3.807-.768 3.807h-1.173l.971-4.973h1.982l.081 3.069 1.415-3.069h2.063l-.93 4.973zm14.198-.078c-.304.074-.617.114-.931.117-.647 0-1.011-.311-1.011-.894-.006-.118.007-.236.041-.35l.08-.389.041-.311.566-3.108h1.254l-.162.932h.648l-.162.971h-.647l-.324 1.709c0 .078-.041.117-.041.155 0 .194.122.311.445.311.11.008.22-.005.324-.039l-.121.894z" fill="#fff"/><path d="M278.737 10.996v-.117l.243-.622h-.283c-.405 0-.728.155-1.133.66l.121-.738h-1.334l-.769 4.04h1.254l.364-1.904c.162-.738.728-1.049 1.133-.971h.121l.081.039.202-.389z" fill="#1b3771"/><path d="M279.142 9.868c-.038-.021-.079-.034-.122-.039s-.081 0-.081-.039h-.121c-.227.005-.449.069-.641.185a1.23 1.23 0 0 0-.451.475l.121-.622h-1.173l-.809 4.079h1.295c.445-2.486.647-2.914 1.253-2.914h.162l.122.039.445-1.165zm-8.737 1.243c0 .505.283.855.97 1.127.526.194.607.272.607.466s-.243.35-.728.35a4.45 4.45 0 0 1-1.173-.155l-.162.932h.041l.202.039h.323c.242.03.485.043.729.039 1.334 0 1.982-.427 1.982-1.36 0-.544-.243-.893-.931-1.127-.526-.194-.607-.233-.607-.427s.203-.311.648-.311c.31-.005.621.008.93.039l.162-.932c-.324-.039-.85-.078-1.133-.078-1.335.039-1.86.661-1.86 1.399zm-5.016 2.797h-1.052v-.427c-.178.16-.388.284-.618.365a1.87 1.87 0 0 1-.717.102 1.13 1.13 0 0 1-.452-.059 1.1 1.1 0 0 1-.388-.232 1.04 1.04 0 0 1-.255-.364 1.02 1.02 0 0 1-.078-.432c0-.971.809-1.554 2.225-1.554h.526c.027-.075.041-.154.04-.233 0-.272-.202-.35-.809-.35a8.26 8.26 0 0 0-1.051.078l-.162.039h-.122l.162-.894c.501-.131 1.018-.197 1.537-.194 1.092 0 1.659.389 1.659 1.166.001.274-.026.547-.081.816l-.243 1.438-.04.233-.041.194v.117l-.04.194zm-.931-1.826h-.283c-.728 0-1.092.194-1.092.622a.38.38 0 0 0 .021.171c.02.055.053.104.095.145a.41.41 0 0 0 .152.092c.056.019.117.026.177.02a1.08 1.08 0 0 0 .676-.352c.172-.194.263-.442.254-.697zm5.097 1.709c-.422.109-.857.161-1.294.155-1.416 0-2.144-.622-2.144-1.826 0-1.399.93-2.409 2.225-2.409 1.051 0 1.698.583 1.698 1.476a5.13 5.13 0 0 1-.121 1.01h-2.548v.116c0 .466.364.699 1.092.699.456-.002.908-.081 1.335-.233l-.243 1.01zm-.688-2.409v-.194c0-.311-.202-.505-.606-.505s-.688.272-.809.738l1.415-.039zm14.239.661c-.203 1.36-1.173 1.942-2.468 1.942-1.416 0-1.982-.816-1.982-1.865a2.19 2.19 0 0 1 .146-.946 2.25 2.25 0 0 1 .54-.804 2.37 2.37 0 0 1 .837-.518c.314-.114.65-.161.985-.14 1.335 0 2.023.816 2.023 1.826l-.081.505zm-1.295-.505c0-.427-.162-.816-.687-.816-.648 0-1.052.738-1.052 1.399 0 .544.283.894.728.894.248-.042.476-.158.651-.333s.287-.398.32-.638a2.14 2.14 0 0 0 .04-.505z" fill="#fff"/></g></g><defs><linearGradient id="A" x1="18.566" y1=".544" x2="18.566" y2="22.456" href="#F"><stop stop-color="#fff"/><stop offset="1" stop-color="#f8e4c3"/></linearGradient><linearGradient id="B" x1="230.176" y1="11.772" x2="237.163" y2="11.772" href="#F"><stop stop-color="#007b40"/><stop offset="1" stop-color="#55b330"/></linearGradient><linearGradient id="C" x1="216.835" y1="11.511" x2="223.311" y2="11.511" href="#F"><stop stop-color="#1d2970"/><stop offset="1" stop-color="#006dba"/></linearGradient><linearGradient id="D" x1="224.881" y1="11.19" x2="231.335" y2="11.19" href="#F"><stop stop-color="#6e2b2f"/><stop offset="1" stop-color="#e30138"/></linearGradient><clipPath id="E"><path fill="#fff" d="M0 0h288v23H0z"/></clipPath><linearGradient id="F" gradientUnits="userSpaceOnUse"/></defs></svg>