<svg width="25" height="27" viewBox="0 0 25 27" fill="none" xmlns="http://www.w3.org/2000/svg">
                        <path d="M24.0091 6.28567L18.6553 0.913781C18.0684 0.328851 17.2748 0.000399403 16.4476 6.70526e-06H2.29053C1.98953 -0.000723696 1.69135 0.0582246 1.41312 0.173465C1.13489 0.288706 0.882101 0.457968 0.669261 0.671529C0.456422 0.88509 0.287731 1.13874 0.172879 1.41791C0.0580279 1.69708 -0.000721252 1.99627 6.68262e-06 2.29829V24.035C-0.000721252 24.3371 0.0580279 24.6363 0.172879 24.9154C0.287731 25.1946 0.456422 25.4482 0.669261 25.6618C0.882101 25.8754 1.13489 26.0446 1.41312 26.1599C1.69135 26.2751 1.98953 26.3341 2.29053 26.3333H22.6568C22.9578 26.3341 23.256 26.2751 23.5342 26.1599C23.8125 26.0446 24.0653 25.8754 24.2781 25.6618C24.4909 25.4482 24.6596 25.1946 24.7745 24.9154C24.8893 24.6363 24.9481 24.3371 24.9474 24.035V8.52857C24.9486 8.11073 24.8662 7.69689 24.705 7.31161C24.5438 6.92633 24.3072 6.57745 24.0091 6.28567ZM12.4737 21.0168C10.9236 21.0168 9.40829 20.5556 8.11943 19.6915C6.83057 18.8274 5.82603 17.5992 5.23283 16.1622C4.63963 14.7253 4.48442 13.1441 4.78683 11.6186C5.08924 10.0932 5.83569 8.69193 6.93177 7.59213C8.02786 6.49233 9.42436 5.74336 10.9447 5.43993C12.465 5.13649 14.0408 5.29223 15.4729 5.88743C16.905 6.48264 18.1291 7.49059 18.9903 8.78382C19.8515 10.077 20.3111 11.5975 20.3111 13.1528C20.3118 14.1857 20.1096 15.2087 19.716 16.1631C19.3224 17.1175 18.7451 17.9847 18.0172 18.7151C17.2893 19.4455 16.425 20.0247 15.4738 20.4197C14.5226 20.8146 13.5031 21.0175 12.4737 21.0168Z" fill="#00A98D" />
                        <path d="M15.548 12.6098C15.5135 12.571 15.4712 12.5399 15.4239 12.5187C15.3766 12.4974 15.3254 12.4864 15.2736 12.4864C15.2217 12.4864 15.1705 12.4974 15.1232 12.5187C15.0759 12.5399 15.0336 12.571 14.9991 12.6098L13.5443 14.0685V8.70135C13.5454 8.65043 13.5363 8.59982 13.5173 8.55256C13.4984 8.5053 13.4702 8.46237 13.4343 8.42636C13.3983 8.39035 13.3555 8.36201 13.3084 8.34304C13.2613 8.32408 13.2108 8.31488 13.16 8.31601H11.7876C11.7368 8.31488 11.6864 8.32408 11.6392 8.34304C11.5921 8.36201 11.5493 8.39035 11.5134 8.42636C11.4775 8.46237 11.4492 8.5053 11.4303 8.55256C11.4114 8.59982 11.4022 8.65043 11.4033 8.70135V14.0685L9.94856 12.6098C9.91406 12.571 9.87177 12.5399 9.82446 12.5187C9.77716 12.4974 9.72591 12.4864 9.67408 12.4864C9.62224 12.4864 9.57099 12.4974 9.52369 12.5187C9.47638 12.5399 9.43409 12.571 9.39959 12.6098L8.4389 13.5731C8.40021 13.6077 8.36926 13.6501 8.34807 13.6975C8.32687 13.745 8.31592 13.7964 8.31592 13.8483C8.31592 13.9003 8.32687 13.9517 8.34807 13.9991C8.36926 14.0466 8.40021 14.089 8.4389 14.1236L12.1993 17.8944C12.2338 17.9331 12.2761 17.9642 12.3234 17.9854C12.3707 18.0067 12.422 18.0177 12.4738 18.0177C12.5256 18.0177 12.5769 18.0067 12.6242 17.9854C12.6715 17.9642 12.7138 17.9331 12.7483 17.8944L16.5087 14.1236C16.5474 14.089 16.5784 14.0466 16.5996 13.9991C16.6208 13.9517 16.6317 13.9003 16.6317 13.8483C16.6317 13.7964 16.6208 13.745 16.5996 13.6975C16.5784 13.6501 16.5474 13.6077 16.5087 13.5731L15.548 12.6098Z" fill="#00B655" />
                    </svg>